<svg width="150" height="150" viewBox="0 0 150 150" fill="none" xmlns="http://www.w3.org/2000/svg">
<path d="M79.8047 139.641H69.8203C68.7422 139.641 67.8047 138.891 67.5234 137.859L58.5703 100.266H72.6328L81.4922 137.531C81.7734 138.563 80.9297 139.641 79.8047 139.641Z" fill="url(#paint0_linear_55_269)"/>
<path d="M79.8047 139.641H69.8203C68.7422 139.641 67.8047 138.891 67.5234 137.859L58.5703 100.266H72.6328L81.4922 137.531C81.7734 138.563 80.9297 139.641 79.8047 139.641Z" fill="url(#paint1_linear_55_269)"/>
<path d="M79.8047 139.641H69.8203C68.7422 139.641 67.8047 138.891 67.5234 137.859L58.5703 100.266H72.6328L81.4922 137.531C81.7734 138.563 80.9297 139.641 79.8047 139.641Z" fill="url(#paint2_linear_55_269)"/>
<path d="M79.8047 139.641H69.8203C68.7422 139.641 67.8047 138.891 67.5234 137.859L58.5703 100.266H72.6328L81.4922 137.531C81.7734 138.563 80.9297 139.641 79.8047 139.641Z" fill="url(#paint3_linear_55_269)"/>
<path d="M79.8047 139.641H69.8203C68.7422 139.641 67.8047 138.891 67.5234 137.859L58.5703 100.266H72.6328L81.4922 137.531C81.7734 138.563 80.9297 139.641 79.8047 139.641Z" fill="url(#paint4_linear_55_269)"/>
<path d="M87.3984 139.641H97.3828C98.4609 139.641 99.3984 138.891 99.6797 137.859L108.633 100.266H94.5703L85.7109 137.531C85.4297 138.563 86.2734 139.641 87.3984 139.641Z" fill="url(#paint5_linear_55_269)"/>
<path d="M87.3984 139.641H97.3828C98.4609 139.641 99.3984 138.891 99.6797 137.859L108.633 100.266H94.5703L85.7109 137.531C85.4297 138.563 86.2734 139.641 87.3984 139.641Z" fill="url(#paint6_linear_55_269)"/>
<path d="M87.3984 139.641H97.3828C98.4609 139.641 99.3984 138.891 99.6797 137.859L108.633 100.266H94.5703L85.7109 137.531C85.4297 138.563 86.2734 139.641 87.3984 139.641Z" fill="url(#paint7_linear_55_269)"/>
<path d="M87.3984 139.641H97.3828C98.4609 139.641 99.3984 138.891 99.6797 137.859L108.633 100.266H94.5703L85.7109 137.531C85.4297 138.563 86.2734 139.641 87.3984 139.641Z" fill="url(#paint8_linear_55_269)"/>
<path d="M87.3984 139.641H97.3828C98.4609 139.641 99.3984 138.891 99.6797 137.859L108.633 100.266H94.5703L85.7109 137.531C85.4297 138.563 86.2734 139.641 87.3984 139.641Z" fill="url(#paint9_linear_55_269)"/>
<path d="M108.117 13.0782C105.445 13.0313 102.82 13.3594 100.336 13.9219C97.1953 14.625 95.7422 18.2813 97.5234 20.9532C97.5234 21 97.5703 21 97.5703 21.0469C98.6484 22.6875 100.617 23.4844 102.539 23.0625C104.227 22.6407 106.008 22.4532 107.789 22.4532C121.102 22.4532 131.883 33.6094 131.18 47.0625C130.57 59.0157 120.914 68.7188 108.914 69.2813C105.07 69.4688 101.461 68.7188 98.2266 67.2657C97.8516 68.0157 97.2422 68.625 96.5859 69.1407C96.6328 71.5313 96.5391 74.1563 95.7891 76.4063C99.4922 77.9063 103.57 78.7032 107.789 78.7032C126.07 78.7032 140.836 63.75 140.602 45.4219C140.367 27.7032 125.836 13.2657 108.117 13.0782Z" fill="url(#paint10_radial_55_269)"/>
<path d="M108.117 13.0782C105.445 13.0313 102.82 13.3594 100.336 13.9219C97.1953 14.625 95.7422 18.2813 97.5234 20.9532C97.5234 21 97.5703 21 97.5703 21.0469C98.6484 22.6875 100.617 23.4844 102.539 23.0625C104.227 22.6407 106.008 22.4532 107.789 22.4532C121.102 22.4532 131.883 33.6094 131.18 47.0625C130.57 59.0157 120.914 68.7188 108.914 69.2813C105.07 69.4688 101.461 68.7188 98.2266 67.2657C97.8516 68.0157 97.2422 68.625 96.5859 69.1407C96.6328 71.5313 96.5391 74.1563 95.7891 76.4063C99.4922 77.9063 103.57 78.7032 107.789 78.7032C126.07 78.7032 140.836 63.75 140.602 45.4219C140.367 27.7032 125.836 13.2657 108.117 13.0782Z" fill="url(#paint11_radial_55_269)"/>
<path d="M108.117 13.0782C105.445 13.0313 102.82 13.3594 100.336 13.9219C97.1953 14.625 95.7422 18.2813 97.5234 20.9532C97.5234 21 97.5703 21 97.5703 21.0469C98.6484 22.6875 100.617 23.4844 102.539 23.0625C104.227 22.6407 106.008 22.4532 107.789 22.4532C121.102 22.4532 131.883 33.6094 131.18 47.0625C130.57 59.0157 120.914 68.7188 108.914 69.2813C105.07 69.4688 101.461 68.7188 98.2266 67.2657C97.8516 68.0157 97.2422 68.625 96.5859 69.1407C96.6328 71.5313 96.5391 74.1563 95.7891 76.4063C99.4922 77.9063 103.57 78.7032 107.789 78.7032C126.07 78.7032 140.836 63.75 140.602 45.4219C140.367 27.7032 125.836 13.2657 108.117 13.0782Z" fill="url(#paint12_radial_55_269)"/>
<path d="M108.117 13.0782C105.445 13.0313 102.82 13.3594 100.336 13.9219C97.1953 14.625 95.7422 18.2813 97.5234 20.9532C97.5234 21 97.5703 21 97.5703 21.0469C98.6484 22.6875 100.617 23.4844 102.539 23.0625C104.227 22.6407 106.008 22.4532 107.789 22.4532C121.102 22.4532 131.883 33.6094 131.18 47.0625C130.57 59.0157 120.914 68.7188 108.914 69.2813C105.07 69.4688 101.461 68.7188 98.2266 67.2657C97.8516 68.0157 97.2422 68.625 96.5859 69.1407C96.6328 71.5313 96.5391 74.1563 95.7891 76.4063C99.4922 77.9063 103.57 78.7032 107.789 78.7032C126.07 78.7032 140.836 63.75 140.602 45.4219C140.367 27.7032 125.836 13.2657 108.117 13.0782Z" fill="url(#paint13_radial_55_269)"/>
<path d="M100.758 50.5782C96.1641 50.5782 91.5703 51.6095 87.4453 53.6251L65.0859 64.5001C63.1641 65.4376 60.9609 64.0313 60.9609 61.922V55.6876C60.9609 49.8282 58.7578 44.4845 55.1484 40.4063L36.1641 19.2657C34.9922 17.9532 32.7891 18.7501 32.7891 20.5313V30.436C32.7891 32.0767 31.6453 33.4642 30.1266 34.0782C22.65 37.0923 16.95 45.061 15.3516 53.2501C15.1172 54.422 14.0859 55.2657 12.9141 55.2657C11.9692 55.2657 11.0631 55.6411 10.395 56.3092C9.7269 56.9773 9.35156 57.8834 9.35156 58.8282V59.8595C9.35171 64.3717 10.9706 68.7342 13.9141 72.1542C16.8576 75.5742 20.9303 77.8248 25.3922 78.497C26.9297 78.7267 28.1953 79.9642 28.1953 81.5157V86.1563C28.193 90.8525 29.7902 95.4094 32.7238 99.0765C35.6573 102.744 39.7523 105.302 44.3344 106.331C45.75 106.645 46.8516 107.836 46.8516 109.284V137.906C46.8516 138.844 47.6484 139.641 48.6328 139.641H59.1797C60.1641 139.641 60.9609 138.844 60.9609 137.859V109.641C60.9609 108.895 61.2573 108.179 61.7847 107.652C62.3121 107.125 63.0275 106.828 63.7734 106.828H95.4609C96.5391 106.828 97.5703 107.25 98.3203 108L109.617 119.297C110.602 120.281 110.883 121.734 110.32 123L104.227 137.203C103.664 138.328 104.508 139.641 105.773 139.641H115.992C116.695 139.641 117.352 139.219 117.586 138.563L129.398 110.953C130.617 108.234 131.227 105.281 131.227 102.328V81.047C131.227 77.0458 130.438 73.0837 128.907 69.3871C127.376 65.6904 125.132 62.3316 122.302 59.5023C119.473 56.673 116.114 54.4287 112.418 52.8975C108.721 51.3663 104.759 50.5782 100.758 50.5782Z" fill="url(#paint14_linear_55_269)"/>
<path d="M100.758 50.5782C96.1641 50.5782 91.5703 51.6095 87.4453 53.6251L65.0859 64.5001C63.1641 65.4376 60.9609 64.0313 60.9609 61.922V55.6876C60.9609 49.8282 58.7578 44.4845 55.1484 40.4063L36.1641 19.2657C34.9922 17.9532 32.7891 18.7501 32.7891 20.5313V30.436C32.7891 32.0767 31.6453 33.4642 30.1266 34.0782C22.65 37.0923 16.95 45.061 15.3516 53.2501C15.1172 54.422 14.0859 55.2657 12.9141 55.2657C11.9692 55.2657 11.0631 55.6411 10.395 56.3092C9.7269 56.9773 9.35156 57.8834 9.35156 58.8282V59.8595C9.35171 64.3717 10.9706 68.7342 13.9141 72.1542C16.8576 75.5742 20.9303 77.8248 25.3922 78.497C26.9297 78.7267 28.1953 79.9642 28.1953 81.5157V86.1563C28.193 90.8525 29.7902 95.4094 32.7238 99.0765C35.6573 102.744 39.7523 105.302 44.3344 106.331C45.75 106.645 46.8516 107.836 46.8516 109.284V137.906C46.8516 138.844 47.6484 139.641 48.6328 139.641H59.1797C60.1641 139.641 60.9609 138.844 60.9609 137.859V109.641C60.9609 108.895 61.2573 108.179 61.7847 107.652C62.3121 107.125 63.0275 106.828 63.7734 106.828H95.4609C96.5391 106.828 97.5703 107.25 98.3203 108L109.617 119.297C110.602 120.281 110.883 121.734 110.32 123L104.227 137.203C103.664 138.328 104.508 139.641 105.773 139.641H115.992C116.695 139.641 117.352 139.219 117.586 138.563L129.398 110.953C130.617 108.234 131.227 105.281 131.227 102.328V81.047C131.227 77.0458 130.438 73.0837 128.907 69.3871C127.376 65.6904 125.132 62.3316 122.302 59.5023C119.473 56.673 116.114 54.4287 112.418 52.8975C108.721 51.3663 104.759 50.5782 100.758 50.5782Z" fill="url(#paint15_radial_55_269)"/>
<path d="M100.758 50.5782C96.1641 50.5782 91.5703 51.6095 87.4453 53.6251L65.0859 64.5001C63.1641 65.4376 60.9609 64.0313 60.9609 61.922V55.6876C60.9609 49.8282 58.7578 44.4845 55.1484 40.4063L36.1641 19.2657C34.9922 17.9532 32.7891 18.7501 32.7891 20.5313V30.436C32.7891 32.0767 31.6453 33.4642 30.1266 34.0782C22.65 37.0923 16.95 45.061 15.3516 53.2501C15.1172 54.422 14.0859 55.2657 12.9141 55.2657C11.9692 55.2657 11.0631 55.6411 10.395 56.3092C9.7269 56.9773 9.35156 57.8834 9.35156 58.8282V59.8595C9.35171 64.3717 10.9706 68.7342 13.9141 72.1542C16.8576 75.5742 20.9303 77.8248 25.3922 78.497C26.9297 78.7267 28.1953 79.9642 28.1953 81.5157V86.1563C28.193 90.8525 29.7902 95.4094 32.7238 99.0765C35.6573 102.744 39.7523 105.302 44.3344 106.331C45.75 106.645 46.8516 107.836 46.8516 109.284V137.906C46.8516 138.844 47.6484 139.641 48.6328 139.641H59.1797C60.1641 139.641 60.9609 138.844 60.9609 137.859V109.641C60.9609 108.895 61.2573 108.179 61.7847 107.652C62.3121 107.125 63.0275 106.828 63.7734 106.828H95.4609C96.5391 106.828 97.5703 107.25 98.3203 108L109.617 119.297C110.602 120.281 110.883 121.734 110.32 123L104.227 137.203C103.664 138.328 104.508 139.641 105.773 139.641H115.992C116.695 139.641 117.352 139.219 117.586 138.563L129.398 110.953C130.617 108.234 131.227 105.281 131.227 102.328V81.047C131.227 77.0458 130.438 73.0837 128.907 69.3871C127.376 65.6904 125.132 62.3316 122.302 59.5023C119.473 56.673 116.114 54.4287 112.418 52.8975C108.721 51.3663 104.759 50.5782 100.758 50.5782Z" fill="url(#paint16_linear_55_269)"/>
<path d="M100.758 50.5782C96.1641 50.5782 91.5703 51.6095 87.4453 53.6251L65.0859 64.5001C63.1641 65.4376 60.9609 64.0313 60.9609 61.922V55.6876C60.9609 49.8282 58.7578 44.4845 55.1484 40.4063L36.1641 19.2657C34.9922 17.9532 32.7891 18.7501 32.7891 20.5313V30.436C32.7891 32.0767 31.6453 33.4642 30.1266 34.0782C22.65 37.0923 16.95 45.061 15.3516 53.2501C15.1172 54.422 14.0859 55.2657 12.9141 55.2657C11.9692 55.2657 11.0631 55.6411 10.395 56.3092C9.7269 56.9773 9.35156 57.8834 9.35156 58.8282V59.8595C9.35171 64.3717 10.9706 68.7342 13.9141 72.1542C16.8576 75.5742 20.9303 77.8248 25.3922 78.497C26.9297 78.7267 28.1953 79.9642 28.1953 81.5157V86.1563C28.193 90.8525 29.7902 95.4094 32.7238 99.0765C35.6573 102.744 39.7523 105.302 44.3344 106.331C45.75 106.645 46.8516 107.836 46.8516 109.284V137.906C46.8516 138.844 47.6484 139.641 48.6328 139.641H59.1797C60.1641 139.641 60.9609 138.844 60.9609 137.859V109.641C60.9609 108.895 61.2573 108.179 61.7847 107.652C62.3121 107.125 63.0275 106.828 63.7734 106.828H95.4609C96.5391 106.828 97.5703 107.25 98.3203 108L109.617 119.297C110.602 120.281 110.883 121.734 110.32 123L104.227 137.203C103.664 138.328 104.508 139.641 105.773 139.641H115.992C116.695 139.641 117.352 139.219 117.586 138.563L129.398 110.953C130.617 108.234 131.227 105.281 131.227 102.328V81.047C131.227 77.0458 130.438 73.0837 128.907 69.3871C127.376 65.6904 125.132 62.3316 122.302 59.5023C119.473 56.673 116.114 54.4287 112.418 52.8975C108.721 51.3663 104.759 50.5782 100.758 50.5782Z" fill="url(#paint17_radial_55_269)"/>
<path d="M100.758 50.5782C96.1641 50.5782 91.5703 51.6095 87.4453 53.6251L65.0859 64.5001C63.1641 65.4376 60.9609 64.0313 60.9609 61.922V55.6876C60.9609 49.8282 58.7578 44.4845 55.1484 40.4063L36.1641 19.2657C34.9922 17.9532 32.7891 18.7501 32.7891 20.5313V30.436C32.7891 32.0767 31.6453 33.4642 30.1266 34.0782C22.65 37.0923 16.95 45.061 15.3516 53.2501C15.1172 54.422 14.0859 55.2657 12.9141 55.2657C11.9692 55.2657 11.0631 55.6411 10.395 56.3092C9.7269 56.9773 9.35156 57.8834 9.35156 58.8282V59.8595C9.35171 64.3717 10.9706 68.7342 13.9141 72.1542C16.8576 75.5742 20.9303 77.8248 25.3922 78.497C26.9297 78.7267 28.1953 79.9642 28.1953 81.5157V86.1563C28.193 90.8525 29.7902 95.4094 32.7238 99.0765C35.6573 102.744 39.7523 105.302 44.3344 106.331C45.75 106.645 46.8516 107.836 46.8516 109.284V137.906C46.8516 138.844 47.6484 139.641 48.6328 139.641H59.1797C60.1641 139.641 60.9609 138.844 60.9609 137.859V109.641C60.9609 108.895 61.2573 108.179 61.7847 107.652C62.3121 107.125 63.0275 106.828 63.7734 106.828H95.4609C96.5391 106.828 97.5703 107.25 98.3203 108L109.617 119.297C110.602 120.281 110.883 121.734 110.32 123L104.227 137.203C103.664 138.328 104.508 139.641 105.773 139.641H115.992C116.695 139.641 117.352 139.219 117.586 138.563L129.398 110.953C130.617 108.234 131.227 105.281 131.227 102.328V81.047C131.227 77.0458 130.438 73.0837 128.907 69.3871C127.376 65.6904 125.132 62.3316 122.302 59.5023C119.473 56.673 116.114 54.4287 112.418 52.8975C108.721 51.3663 104.759 50.5782 100.758 50.5782Z" fill="url(#paint18_radial_55_269)"/>
<path fill-rule="evenodd" clip-rule="evenodd" d="M98.1094 107.803L91.2422 99.6562C87.9609 95.7187 83.0859 93.4688 77.9766 93.4688H60.9141V119.236H60.9609V109.641C60.9609 108.895 61.2573 108.179 61.7847 107.652C62.3121 107.124 63.0275 106.828 63.7734 106.828H95.4609C96.4453 106.828 97.3828 107.18 98.1094 107.803Z" fill="url(#paint19_linear_55_269)"/>
<path d="M46.8516 109.284V93.1875L40.875 82.9359C40.2683 81.667 39.3144 80.5958 38.1239 79.8467C36.9334 79.0976 35.555 78.7011 34.1484 78.7031H26.1656C26.7473 78.9138 27.252 79.2948 27.614 79.7965C27.9761 80.2981 28.1786 80.8972 28.1953 81.5156V86.1562C28.193 90.8524 29.7902 95.4093 32.7238 99.0765C35.6573 102.744 39.7523 105.302 44.3344 106.331C45.75 106.645 46.8516 107.836 46.8516 109.284Z" fill="url(#paint20_linear_55_269)"/>
<path d="M46.8516 109.284V93.1875L40.875 82.9359C40.2683 81.667 39.3144 80.5958 38.1239 79.8467C36.9334 79.0976 35.555 78.7011 34.1484 78.7031H26.1656C26.7473 78.9138 27.252 79.2948 27.614 79.7965C27.9761 80.2981 28.1786 80.8972 28.1953 81.5156V86.1562C28.193 90.8524 29.7902 95.4093 32.7238 99.0765C35.6573 102.744 39.7523 105.302 44.3344 106.331C45.75 106.645 46.8516 107.836 46.8516 109.284Z" fill="url(#paint21_radial_55_269)"/>
<path d="M60.9609 55.6876V61.922C58.5187 63.2579 52.0219 70.472 41.0672 76.022C37.3594 77.897 34.9875 78.7032 28.1953 78.7032C23.1976 78.7032 18.4047 76.7179 14.8708 73.184C11.3369 69.6501 9.35156 64.8571 9.35156 59.8595V58.8282C9.35156 56.8595 10.9453 55.2657 12.9141 55.2657C14.0859 55.2657 15.1172 54.422 15.3516 53.2501C17.1328 44.1095 24.0234 35.2501 32.7891 33.2345V20.5313C32.7891 18.7501 34.9922 17.9532 36.1641 19.2657L55.1484 40.4063C58.7578 44.4845 60.9609 49.8282 60.9609 55.6876Z" fill="url(#paint22_linear_55_269)"/>
<path d="M60.9609 55.6876V61.922C58.5187 63.2579 52.0219 70.472 41.0672 76.022C37.3594 77.897 34.9875 78.7032 28.1953 78.7032C23.1976 78.7032 18.4047 76.7179 14.8708 73.184C11.3369 69.6501 9.35156 64.8571 9.35156 59.8595V58.8282C9.35156 56.8595 10.9453 55.2657 12.9141 55.2657C14.0859 55.2657 15.1172 54.422 15.3516 53.2501C17.1328 44.1095 24.0234 35.2501 32.7891 33.2345V20.5313C32.7891 18.7501 34.9922 17.9532 36.1641 19.2657L55.1484 40.4063C58.7578 44.4845 60.9609 49.8282 60.9609 55.6876Z" fill="url(#paint23_radial_55_269)"/>
<path d="M70.2891 78.8906C72.8672 78.8906 74.9766 76.7813 74.9766 74.2031V59.6719L65.6016 64.2188V74.2031C65.6016 76.7813 67.7109 78.8906 70.2891 78.8906Z" fill="url(#paint24_linear_55_269)"/>
<path d="M87.3984 53.625L79.5703 57.4219V70.3125C79.5703 72.8906 81.6797 75 84.2578 75C86.8359 75 88.9453 72.8906 88.9453 70.3125V52.9688C88.4297 53.1562 87.9141 53.3906 87.3984 53.625Z" fill="url(#paint25_linear_55_269)"/>
<path d="M100.758 50.5781C98.3203 50.5781 95.9297 50.8594 93.5859 51.4219V66.4219C93.5859 69 95.6953 71.1094 98.2734 71.1094C100.852 71.1094 102.961 69 102.961 66.4219V50.6719C102.211 50.625 101.461 50.5781 100.758 50.5781Z" fill="url(#paint26_linear_55_269)"/>
<path d="M55.1016 40.4062L51.6328 36.5156H46.8516C44.2734 36.5156 42.1641 38.625 42.1641 41.2031C42.1641 43.7812 44.2734 45.8906 46.8516 45.8906H58.7109C57.7734 43.875 56.5547 42.0469 55.1016 40.4062ZM60.9141 55.6875C60.9141 53.9062 60.7266 52.2188 60.3516 50.5781H53.8828C51.3047 50.5781 49.1953 52.6875 49.1953 55.2656C49.1953 57.8438 51.3047 59.9531 53.8828 59.9531H60.9141V55.6875Z" fill="#C78565"/>
<path d="M17.1797 57.4219C17.8359 56.5313 17.2266 55.2656 16.1016 55.2656H12.9141C11.9692 55.2656 11.0631 55.641 10.395 56.3091C9.7269 56.9772 9.35156 57.8833 9.35156 58.8281V59.8594C9.35156 61.5469 9.58125 63.1875 9.99844 64.7344C10.1906 65.4516 11.1094 65.5875 11.5547 64.9922L17.1797 57.4219Z" fill="url(#paint27_radial_55_269)"/>
<path d="M17.1797 57.4219C17.8359 56.5313 17.2266 55.2656 16.1016 55.2656H12.9141C11.9692 55.2656 11.0631 55.641 10.395 56.3091C9.7269 56.9772 9.35156 57.8833 9.35156 58.8281V59.8594C9.35156 61.5469 9.58125 63.1875 9.99844 64.7344C10.1906 65.4516 11.1094 65.5875 11.5547 64.9922L17.1797 57.4219Z" fill="url(#paint28_linear_55_269)"/>
<g filter="url(#filter0_f_55_269)">
<path d="M72.0938 110.963L77.9063 134.349" stroke="url(#paint29_linear_55_269)" stroke-width="0.2"/>
</g>
<g filter="url(#filter1_f_55_269)">
<path d="M57.1078 103.781V135.347" stroke="url(#paint30_linear_55_269)" stroke-width="0.2"/>
</g>
<g filter="url(#filter2_f_55_269)">
<path d="M96.375 111.839L90.8062 135.713" stroke="url(#paint31_linear_55_269)" stroke-opacity="0.5" stroke-width="0.2"/>
</g>
<g filter="url(#filter3_f_55_269)">
<path d="M98.1984 58.0033C102.956 57.4876 108.877 58.2001 114.895 61.6642C121.636 65.5501 124.05 72.3611 124.05 77.7048V105.689" stroke="url(#paint32_linear_55_269)" stroke-linecap="round"/>
</g>
<g filter="url(#filter4_f_55_269)">
<path d="M123.319 105.098V110.667L113.798 133.664" stroke="url(#paint33_linear_55_269)" stroke-width="0.5" stroke-linecap="round"/>
</g>
<g filter="url(#filter5_f_55_269)">
<path d="M47.55 48.6796L35.7188 21.3093L54.5063 45.0093C56.4768 47.4953 57.5489 50.5746 57.5484 53.7468V67.0875C57.5484 68.312 57.062 69.4864 56.1961 70.3523C55.3302 71.2182 54.1558 71.7046 52.9312 71.7046C51.7067 71.7046 50.5323 71.2182 49.6664 70.3523C48.8005 69.4864 48.3141 68.312 48.3141 67.0875V52.4015C48.3161 51.1217 48.0561 49.8551 47.55 48.6796Z" fill="url(#paint34_linear_55_269)" fill-opacity="0.75"/>
</g>
<g filter="url(#filter6_f_55_269)">
<path d="M29.5172 50.5312H29.5125C28.2595 50.5312 27.2437 51.547 27.2437 52.8V57.7125C27.2437 58.9655 28.2595 59.9812 29.5125 59.9812H29.5172C30.7702 59.9812 31.7859 58.9655 31.7859 57.7125V52.8C31.7859 51.547 30.7702 50.5312 29.5172 50.5312Z" fill="#D58E49"/>
</g>
<path d="M30.4688 50.5312H30.4641C29.2111 50.5312 28.1953 51.547 28.1953 52.8V57.7125C28.1953 58.9655 29.2111 59.9812 30.4641 59.9812H30.4688C31.7217 59.9812 32.7375 58.9655 32.7375 57.7125V52.8C32.7375 51.547 31.7217 50.5312 30.4688 50.5312Z" fill="url(#paint35_linear_55_269)"/>
<path d="M30.4688 50.5312H30.4641C29.2111 50.5312 28.1953 51.547 28.1953 52.8V57.7125C28.1953 58.9655 29.2111 59.9812 30.4641 59.9812H30.4688C31.7217 59.9812 32.7375 58.9655 32.7375 57.7125V52.8C32.7375 51.547 31.7217 50.5312 30.4688 50.5312Z" fill="url(#paint36_linear_55_269)"/>
<g filter="url(#filter7_f_55_269)">
<path d="M102.956 17.0626C108.131 16.1344 121.561 17.0626 129.178 24.6798C140.25 35.7516 137.822 55.2938 129.178 65.1094" stroke="url(#paint37_linear_55_269)" stroke-width="0.3" stroke-linecap="round"/>
</g>
<defs>
<filter id="filter0_f_55_269" x="71.2967" y="110.238" width="7.40659" height="24.8343" filterUnits="userSpaceOnUse" color-interpolation-filters="sRGB">
<feFlood flood-opacity="0" result="BackgroundImageFix"/>
<feBlend mode="normal" in="SourceGraphic" in2="BackgroundImageFix" result="shape"/>
<feGaussianBlur stdDeviation="0.35" result="effect1_foregroundBlur_55_269"/>
</filter>
<filter id="filter1_f_55_269" x="56.3078" y="103.081" width="1.60001" height="32.9657" filterUnits="userSpaceOnUse" color-interpolation-filters="sRGB">
<feFlood flood-opacity="0" result="BackgroundImageFix"/>
<feBlend mode="normal" in="SourceGraphic" in2="BackgroundImageFix" result="shape"/>
<feGaussianBlur stdDeviation="0.35" result="effect1_foregroundBlur_55_269"/>
</filter>
<filter id="filter2_f_55_269" x="90.0089" y="111.116" width="7.16352" height="25.3189" filterUnits="userSpaceOnUse" color-interpolation-filters="sRGB">
<feFlood flood-opacity="0" result="BackgroundImageFix"/>
<feBlend mode="normal" in="SourceGraphic" in2="BackgroundImageFix" result="shape"/>
<feGaussianBlur stdDeviation="0.35" result="effect1_foregroundBlur_55_269"/>
</filter>
<filter id="filter3_f_55_269" x="94.6984" y="54.3528" width="32.8516" height="54.8364" filterUnits="userSpaceOnUse" color-interpolation-filters="sRGB">
<feFlood flood-opacity="0" result="BackgroundImageFix"/>
<feBlend mode="normal" in="SourceGraphic" in2="BackgroundImageFix" result="shape"/>
<feGaussianBlur stdDeviation="1.5" result="effect1_foregroundBlur_55_269"/>
</filter>
<filter id="filter4_f_55_269" x="111.548" y="102.848" width="14.0204" height="33.0657" filterUnits="userSpaceOnUse" color-interpolation-filters="sRGB">
<feFlood flood-opacity="0" result="BackgroundImageFix"/>
<feBlend mode="normal" in="SourceGraphic" in2="BackgroundImageFix" result="shape"/>
<feGaussianBlur stdDeviation="1" result="effect1_foregroundBlur_55_269"/>
</filter>
<filter id="filter5_f_55_269" x="34.7188" y="20.3093" width="23.8297" height="52.3953" filterUnits="userSpaceOnUse" color-interpolation-filters="sRGB">
<feFlood flood-opacity="0" result="BackgroundImageFix"/>
<feBlend mode="normal" in="SourceGraphic" in2="BackgroundImageFix" result="shape"/>
<feGaussianBlur stdDeviation="0.5" result="effect1_foregroundBlur_55_269"/>
</filter>
<filter id="filter6_f_55_269" x="26.7437" y="50.0312" width="5.54218" height="10.45" filterUnits="userSpaceOnUse" color-interpolation-filters="sRGB">
<feFlood flood-opacity="0" result="BackgroundImageFix"/>
<feBlend mode="normal" in="SourceGraphic" in2="BackgroundImageFix" result="shape"/>
<feGaussianBlur stdDeviation="0.25" result="effect1_foregroundBlur_55_269"/>
</filter>
<filter id="filter7_f_55_269" x="102.206" y="16.0172" width="35.1431" height="49.8423" filterUnits="userSpaceOnUse" color-interpolation-filters="sRGB">
<feFlood flood-opacity="0" result="BackgroundImageFix"/>
<feBlend mode="normal" in="SourceGraphic" in2="BackgroundImageFix" result="shape"/>
<feGaussianBlur stdDeviation="0.3" result="effect1_foregroundBlur_55_269"/>
</filter>
<linearGradient id="paint0_linear_55_269" x1="66.0891" y1="124.767" x2="62.5875" y2="93.9891" gradientUnits="userSpaceOnUse">
<stop stop-color="#EC9771"/>
<stop offset="0.754" stop-color="#CF6247"/>
</linearGradient>
<linearGradient id="paint1_linear_55_269" x1="65.7656" y1="100.266" x2="67.6406" y2="113.381" gradientUnits="userSpaceOnUse">
<stop stop-color="#CF6144"/>
<stop offset="1" stop-color="#BC5035" stop-opacity="0"/>
</linearGradient>
<linearGradient id="paint2_linear_55_269" x1="79.125" y1="111.366" x2="74.2031" y2="112.486" gradientUnits="userSpaceOnUse">
<stop stop-color="#CF6144"/>
<stop offset="1" stop-color="#BC5035" stop-opacity="0"/>
</linearGradient>
<linearGradient id="paint3_linear_55_269" x1="58.5703" y1="114.788" x2="63.8203" y2="114.22" gradientUnits="userSpaceOnUse">
<stop stop-color="#CF6144"/>
<stop offset="1" stop-color="#BC5035" stop-opacity="0"/>
</linearGradient>
<linearGradient id="paint4_linear_55_269" x1="70.0594" y1="141.994" x2="70.0594" y2="134.198" gradientUnits="userSpaceOnUse">
<stop stop-color="#EF74E3"/>
<stop offset="1" stop-color="#EB8D98" stop-opacity="0"/>
</linearGradient>
<linearGradient id="paint5_linear_55_269" x1="93.1781" y1="124.767" x2="89.6719" y2="93.9891" gradientUnits="userSpaceOnUse">
<stop stop-color="#EC9771"/>
<stop offset="0.754" stop-color="#CF6247"/>
</linearGradient>
<linearGradient id="paint6_linear_55_269" x1="98.4844" y1="100.266" x2="92.8078" y2="122.002" gradientUnits="userSpaceOnUse">
<stop stop-color="#CF6144"/>
<stop offset="1" stop-color="#BC5035" stop-opacity="0"/>
</linearGradient>
<linearGradient id="paint7_linear_55_269" x1="108.633" y1="113.873" x2="103.336" y2="112.791" gradientUnits="userSpaceOnUse">
<stop stop-color="#CF6144"/>
<stop offset="1" stop-color="#BC5035" stop-opacity="0"/>
</linearGradient>
<linearGradient id="paint8_linear_55_269" x1="85.6594" y1="114.788" x2="93.1219" y2="116.761" gradientUnits="userSpaceOnUse">
<stop stop-color="#CF6144"/>
<stop offset="1" stop-color="#BC5035" stop-opacity="0"/>
</linearGradient>
<linearGradient id="paint9_linear_55_269" x1="97.1484" y1="141.994" x2="97.1484" y2="134.198" gradientUnits="userSpaceOnUse">
<stop stop-color="#EF74E3"/>
<stop offset="1" stop-color="#EB8D98" stop-opacity="0"/>
</linearGradient>
<radialGradient id="paint10_radial_55_269" cx="0" cy="0" r="1" gradientUnits="userSpaceOnUse" gradientTransform="translate(118.197 69.507) rotate(-58.259) scale(75.4444 75.4444)">
<stop stop-color="#E66F2C"/>
<stop offset="1" stop-color="#FFDEA7"/>
</radialGradient>
<radialGradient id="paint11_radial_55_269" cx="0" cy="0" r="1" gradientUnits="userSpaceOnUse" gradientTransform="translate(95.7891 20.2828) rotate(5.71438) scale(17.6541 12.0552)">
<stop stop-color="#D08E47"/>
<stop offset="1" stop-color="#D89B5A" stop-opacity="0"/>
</radialGradient>
<radialGradient id="paint12_radial_55_269" cx="0" cy="0" r="1" gradientUnits="userSpaceOnUse" gradientTransform="translate(115.702 52.8047) rotate(-30.9638) scale(27.3326 48.4069)">
<stop stop-color="#D48B5E"/>
<stop offset="1" stop-color="#D48B5E" stop-opacity="0"/>
</radialGradient>
<radialGradient id="paint13_radial_55_269" cx="0" cy="0" r="1" gradientUnits="userSpaceOnUse" gradientTransform="translate(123.023 40.2047) rotate(-20.3655) scale(20.6252 41.063)">
<stop stop-color="#BB704E"/>
<stop offset="0.592" stop-color="#C38062" stop-opacity="0"/>
</radialGradient>
<linearGradient id="paint14_linear_55_269" x1="70.2891" y1="50.2829" x2="70.2891" y2="139.641" gradientUnits="userSpaceOnUse">
<stop stop-color="#FCAC5D"/>
<stop offset="0.469" stop-color="#EE9B63"/>
<stop offset="1" stop-color="#E28666"/>
</linearGradient>
<radialGradient id="paint15_radial_55_269" cx="0" cy="0" r="1" gradientUnits="userSpaceOnUse" gradientTransform="translate(94.0219 110.372) rotate(-51.1926) scale(35.5281 61.4259)">
<stop stop-color="#DA7C40"/>
<stop offset="1" stop-color="#EC9964" stop-opacity="0"/>
</radialGradient>
<linearGradient id="paint16_linear_55_269" x1="70.2891" y1="146.869" x2="70.2891" y2="132.492" gradientUnits="userSpaceOnUse">
<stop stop-color="#EF74E3"/>
<stop offset="1" stop-color="#EB8D98" stop-opacity="0"/>
</linearGradient>
<radialGradient id="paint17_radial_55_269" cx="0" cy="0" r="1" gradientUnits="userSpaceOnUse" gradientTransform="translate(94.0219 116.672) rotate(-58.2986) scale(23.4155 20.5995)">
<stop stop-color="#D74DC9"/>
<stop offset="1" stop-color="#EB8D98" stop-opacity="0"/>
</radialGradient>
<radialGradient id="paint18_radial_55_269" cx="0" cy="0" r="1" gradientUnits="userSpaceOnUse" gradientTransform="translate(31.6204 52.22) rotate(56.411) scale(32.3028 32.5292)">
<stop stop-color="#E4AB6F"/>
<stop offset="1" stop-color="#E4AB6F" stop-opacity="0"/>
</radialGradient>
<linearGradient id="paint19_linear_55_269" x1="79.5938" y1="93.4688" x2="79.5938" y2="108" gradientUnits="userSpaceOnUse">
<stop offset="0.226" stop-color="#F3BDB0"/>
<stop offset="1" stop-color="#E5A0A5"/>
</linearGradient>
<linearGradient id="paint20_linear_55_269" x1="36.5109" y1="79.7578" x2="36.5109" y2="107.297" gradientUnits="userSpaceOnUse">
<stop stop-color="#ECBC95"/>
<stop offset="0.484" stop-color="#F3BDB0"/>
<stop offset="1" stop-color="#E5A0A5"/>
</linearGradient>
<radialGradient id="paint21_radial_55_269" cx="0" cy="0" r="1" gradientUnits="userSpaceOnUse" gradientTransform="translate(45.9749 88.5487) rotate(145.797) scale(22.671 33.1294)">
<stop offset="0.62" stop-color="#CF8C61" stop-opacity="0"/>
<stop offset="1" stop-color="#CF8C61"/>
</radialGradient>
<linearGradient id="paint22_linear_55_269" x1="30.7406" y1="70.0923" x2="21.2203" y2="83.2735" gradientUnits="userSpaceOnUse">
<stop stop-color="#D1867C" stop-opacity="0"/>
<stop offset="0.849" stop-color="#D1867C"/>
</linearGradient>
<radialGradient id="paint23_radial_55_269" cx="0" cy="0" r="1" gradientUnits="userSpaceOnUse" gradientTransform="translate(15.5063 43.1345) rotate(34.3397) scale(17.9179 48.7814)">
<stop stop-color="#CF8C61"/>
<stop offset="0.414" stop-color="#CF8C61" stop-opacity="0"/>
</radialGradient>
<linearGradient id="paint24_linear_55_269" x1="70.2891" y1="59.6719" x2="70.2891" y2="78.8906" gradientUnits="userSpaceOnUse">
<stop stop-color="#A36A45"/>
<stop offset="0.266" stop-color="#BD7D53"/>
<stop offset="1" stop-color="#CD8A60"/>
</linearGradient>
<linearGradient id="paint25_linear_55_269" x1="84.2578" y1="50.4609" x2="84.2578" y2="73.1672" gradientUnits="userSpaceOnUse">
<stop stop-color="#A36A45"/>
<stop offset="0.266" stop-color="#BD7D53"/>
<stop offset="1" stop-color="#CD8A60"/>
</linearGradient>
<linearGradient id="paint26_linear_55_269" x1="98.2734" y1="48.9984" x2="98.2734" y2="66.5766" gradientUnits="userSpaceOnUse">
<stop stop-color="#A36A45"/>
<stop offset="0.266" stop-color="#BD7D53"/>
<stop offset="1" stop-color="#CD8A60"/>
</linearGradient>
<radialGradient id="paint27_radial_55_269" cx="0" cy="0" r="1" gradientUnits="userSpaceOnUse" gradientTransform="translate(15.4312 57.3426) rotate(140.717) scale(5.48822 3.80114)">
<stop offset="0.022" stop-color="#6B5E60"/>
<stop offset="0.991" stop-color="#433338"/>
</radialGradient>
<linearGradient id="paint28_linear_55_269" x1="18.7172" y1="68.3203" x2="18.7172" y2="58.9453" gradientUnits="userSpaceOnUse">
<stop stop-color="#552D52"/>
<stop offset="1" stop-color="#552D52" stop-opacity="0"/>
</linearGradient>
<linearGradient id="paint29_linear_55_269" x1="69.9234" y1="113.081" x2="93.975" y2="142.753" gradientUnits="userSpaceOnUse">
<stop stop-color="#FFDEAB"/>
<stop offset="1" stop-color="#FFDEAB" stop-opacity="0"/>
</linearGradient>
<linearGradient id="paint30_linear_55_269" x1="-nan" y1="-nan" x2="-nan" y2="-nan" gradientUnits="userSpaceOnUse">
<stop stop-color="#FFDEAB"/>
<stop offset="1" stop-color="#FFDEAB" stop-opacity="0"/>
</linearGradient>
<linearGradient id="paint31_linear_55_269" x1="90.7359" y1="113.081" x2="114.787" y2="142.753" gradientUnits="userSpaceOnUse">
<stop stop-color="#FFDEAB"/>
<stop offset="1" stop-color="#FFDEAB" stop-opacity="0"/>
</linearGradient>
<linearGradient id="paint32_linear_55_269" x1="116.433" y1="86.3486" x2="125.644" y2="147.192" gradientUnits="userSpaceOnUse">
<stop stop-color="#FFDEAB"/>
<stop offset="1" stop-color="#FFDEAB" stop-opacity="0"/>
</linearGradient>
<linearGradient id="paint33_linear_55_269" x1="131.227" y1="114.033" x2="121.087" y2="145.641" gradientUnits="userSpaceOnUse">
<stop stop-color="#FFDEAB"/>
<stop offset="1" stop-color="#FFDEAB" stop-opacity="0"/>
</linearGradient>
<linearGradient id="paint34_linear_55_269" x1="46.6313" y1="21.3093" x2="46.6313" y2="85.1765" gradientUnits="userSpaceOnUse">
<stop stop-color="#FFDEAB"/>
<stop offset="1" stop-color="#FFDEAB" stop-opacity="0"/>
</linearGradient>
<linearGradient id="paint35_linear_55_269" x1="32.1" y1="55.2562" x2="29.2594" y2="55.2562" gradientUnits="userSpaceOnUse">
<stop offset="0.225" stop-color="#6B5E60"/>
<stop offset="1" stop-color="#433338"/>
</linearGradient>
<linearGradient id="paint36_linear_55_269" x1="33.45" y1="61.6359" x2="33.45" y2="53.6625" gradientUnits="userSpaceOnUse">
<stop stop-color="#552D52"/>
<stop offset="1" stop-color="#552D52" stop-opacity="0"/>
</linearGradient>
<linearGradient id="paint37_linear_55_269" x1="124.491" y1="32.5876" x2="126.192" y2="73.5469" gradientUnits="userSpaceOnUse">
<stop stop-color="#FFDEAB"/>
<stop offset="1" stop-color="#FFDEAB" stop-opacity="0"/>
</linearGradient>
</defs>
</svg>
