<svg width="150" height="150" viewBox="0 0 150 150" fill="none" xmlns="http://www.w3.org/2000/svg">
<path d="M33.0469 108.281C18.75 107.109 7.03125 89.0625 7.03125 89.0625C7.03125 111.328 26.7188 119.531 35.625 116.484C43.5938 113.906 33.0469 108.281 33.0469 108.281Z" fill="#947151"/>
<path d="M96.7969 131.25C100.781 135.938 119.062 131.25 122.109 125.859C134.062 103.594 122.109 89.2969 122.109 89.2969L96.7969 97.0313C96.7969 97.2656 91.6406 125.391 96.7969 131.25Z" fill="#EABC92"/>
<path d="M79.6875 141.563C84.1406 146.719 100.312 146.484 105 141.563C112.031 134.531 111.562 102.422 112.031 86.9531L82.2656 84.375C82.2656 84.375 74.0625 134.766 79.6875 141.563Z" fill="#F5D1AC"/>
<path d="M62.5781 131.25C58.5938 135.938 40.3125 131.25 37.2656 125.859C25.3125 103.594 37.2656 89.2969 37.2656 89.2969L62.5781 97.0313C62.5781 97.2656 67.9688 125.391 62.5781 131.25Z" fill="#EABC92"/>
<path d="M79.9219 141.563C75.4687 146.719 59.2969 146.484 54.6094 141.563C47.5781 134.531 48.0469 102.422 47.5781 86.9531L77.3437 84.375C77.3437 84.375 85.5469 134.766 79.9219 141.563Z" fill="#F5D1AC"/>
<path d="M79.6875 141.797C78.9844 136.875 78.75 131.953 78.75 127.031C78.75 122.109 78.9844 117.188 79.6875 112.266C80.3906 117.188 80.625 122.109 80.625 127.031C80.625 131.953 80.3906 136.875 79.6875 141.797Z" fill="#423223"/>
<path d="M79.6875 108.984C55.7813 108.984 43.5938 99.6094 43.5938 99.6094C43.5938 99.6094 51.5625 120.937 79.6875 120.937C107.813 120.937 115.781 99.6094 115.781 99.6094C115.781 99.6094 103.594 108.984 79.6875 108.984Z" fill="#3E4347"/>
<path d="M72.8906 114.844C72.8906 111.563 74.2969 108.984 75.9375 108.75C75.4688 108.281 74.7656 108.047 74.2969 108.047C72.1875 108.047 70.5469 111.094 70.5469 114.844C70.5469 118.594 72.1875 121.641 74.2969 121.641C75 121.641 75.4688 121.172 75.9375 120.703C74.2969 120.703 72.8906 118.125 72.8906 114.844Z" fill="white"/>
<path d="M45.7031 100.781C31.4063 91.875 25.7813 56.9531 30.4688 41.25C33.9844 29.5312 46.875 12.1875 58.5938 7.5C68.4375 3.75 91.1719 3.75 101.016 7.5C112.734 11.9531 125.859 29.2969 129.141 41.25C133.828 57.1875 130.313 91.875 116.016 100.781C86.0156 119.531 75.7031 119.531 45.7031 100.781Z" fill="#F5D1AC"/>
<path d="M23.2031 44.7656C30.7031 60.9375 32.5781 61.6406 39.8438 42.4219C43.5938 32.1094 41.0156 26.0156 45.4688 19.4531C48.0469 15.7031 53.6719 9.84375 53.6719 9.84375C53.6719 9.84375 8.67188 14.2969 23.2031 44.7656Z" fill="#423223"/>
<path d="M42.1875 9.14057C30.9375 16.1718 6.79688 13.3593 21.0938 43.8281C28.5938 60 30.4688 60.7031 37.7344 41.4843C41.4844 31.1718 38.9063 25.0781 43.3594 18.5156C45.9375 14.7656 53.6719 9.8437 53.6719 9.8437C53.6719 9.8437 50.1563 4.2187 42.1875 9.14057Z" fill="#947151"/>
<path d="M136.406 44.7656C128.906 60.9375 127.031 61.6406 119.766 42.4219C116.016 32.1094 118.594 26.0156 114.141 19.4531C111.562 15.7031 105.938 9.84375 105.938 9.84375C105.938 9.84375 150.938 14.2969 136.406 44.7656Z" fill="#423223"/>
<path d="M117.422 9.14057C128.672 16.1718 153.047 13.3593 138.75 43.8281C131.25 60 129.375 60.7031 122.109 41.4843C118.359 31.1718 120.938 25.0781 116.484 18.5156C113.906 14.7656 106.172 9.8437 106.172 9.8437C106.172 9.8437 109.453 4.2187 117.422 9.14057Z" fill="#947151"/>
<path d="M49.6875 45C56.7188 45 62.3438 50.3906 62.3438 57.1875C62.3438 63.9844 56.7188 69.375 49.6875 69.375C42.6563 69.375 37.0312 63.9844 37.0312 57.1875C37.0312 50.3906 42.8906 45 49.6875 45Z" fill="white"/>
<path d="M46.6406 66.3281C51.8183 66.3281 56.0156 62.2357 56.0156 57.1875C56.0156 52.1393 51.8183 48.0469 46.6406 48.0469C41.463 48.0469 37.2656 52.1393 37.2656 57.1875C37.2656 62.2357 41.463 66.3281 46.6406 66.3281Z" fill="#3E4347"/>
<path d="M122.344 57.1875C122.344 63.9844 116.719 69.375 109.687 69.375C102.656 69.375 97.0312 63.9844 97.0312 57.1875C97.0312 50.3906 102.656 45 109.687 45C116.719 45 122.344 50.3906 122.344 57.1875Z" fill="white"/>
<path d="M112.969 66.3281C118.146 66.3281 122.344 62.2357 122.344 57.1875C122.344 52.1393 118.146 48.0469 112.969 48.0469C107.791 48.0469 103.594 52.1393 103.594 57.1875C103.594 62.2357 107.791 66.3281 112.969 66.3281Z" fill="#3E4347"/>
<path d="M58.125 93.9844L67.9688 103.828C73.8281 109.688 86.0156 109.688 91.875 103.828L101.719 93.9844L91.4062 83.9062H68.2031L58.125 93.9844Z" fill="#7D644B"/>
<path d="M79.6875 75.2344C79.6875 75.2344 69.375 89.5312 70.7813 96.3281C72.4219 106.172 87.1875 106.172 88.8281 96.3281C90 89.5312 79.6875 75.2344 79.6875 75.2344Z" fill="#F15A61"/>
<path d="M79.6875 100.078L82.0313 86.25H77.5781L79.6875 100.078Z" fill="#BA454B"/>
<path d="M69.1406 79.2188H90.2344V88.5938H69.1406V79.2188Z" fill="#423223"/>
<path d="M113.203 81.3281L98.2031 66.0938C89.0625 56.9531 70.5469 56.9531 61.6406 66.0938L46.6406 81.3281C42.4219 85.5469 42.4219 92.5781 46.6406 97.0312C50.8594 101.25 57.8906 101.25 62.1094 97.0312L77.1094 81.7969C78.5156 80.3906 81.3281 80.3906 82.7344 81.7969L97.7344 97.0312C101.953 101.25 108.984 101.25 113.203 97.0312C117.422 92.8125 117.422 85.7812 113.203 81.3281Z" fill="#947151"/>
<path d="M67.2656 67.2656C67.2656 61.875 72.8906 60.9375 79.6875 60.9375C86.4844 60.9375 92.1094 61.875 92.1094 67.2656C92.1094 71.4844 82.2656 75.2344 79.6875 75.2344C77.3438 75.2344 67.2656 71.4844 67.2656 67.2656ZM63.5156 71.9531L61.4063 74.0625L63.5156 76.1719L65.625 74.0625L63.5156 71.9531ZM58.5937 77.5781L56.4844 79.6875L58.5937 81.7969L60.7031 79.6875L58.5937 77.5781ZM65.1562 79.6875L63.0469 81.7969L65.1562 83.9062L67.2656 81.7969L65.1562 79.6875ZM96.0938 71.9531L98.2031 74.0625L96.0938 76.1719L93.9844 74.0625L96.0938 71.9531ZM101.016 77.5781L103.125 79.6875L101.016 81.7969L98.9062 79.6875L101.016 77.5781ZM94.4531 79.6875L96.5625 81.7969L94.4531 83.9062L92.3438 81.7969L94.4531 79.6875Z" fill="#3E4347"/>
</svg>
